/* XPM */
static char *_1b9750f217c4883d3bf35109d33c53fEfCX9MJmP3VGBAuV[] = {
/* columns rows colors chars-per-pixel */
"64 64 230 2 ",
"   c None",
".  c #36355B",
"X  c #2E2A57",
"o  c #3A3A64",
"O  c #373864",
"+  c #413E61",
"@  c #3A456B",
"#  c #3C496D",
"$  c #374368",
"%  c #3C4C72",
"&  c #364977",
"*  c #2D5B79",
"=  c #2B5775",
"-  c #3E5176",
";  c #3A5B75",
":  c #335E7B",
">  c #395979",
",  c #294A74",
"<  c #34607D",
"1  c #43415C",
"2  c #79684F",
"3  c #464968",
"4  c #4C5669",
"5  c #54556A",
"6  c #56586A",
"7  c #484B73",
"8  c #435375",
"9  c #435579",
"0  c #445A7C",
"q  c #4B5D7C",
"w  c #495876",
"e  c #525476",
"r  c #555A76",
"t  c #545C7C",
"y  c #595D7A",
"u  c #575B78",
"i  c #4D607E",
"p  c #43627F",
"a  c #5D637C",
"s  c #55627A",
"d  c #517177",
"f  c #626A7E",
"g  c #626679",
"h  c #697977",
"j  c #757475",
"k  c #705E49",
"l  c #867359",
"z  c #847C7A",
"x  c #768277",
"c  c #888877",
"v  c #3B5782",
"b  c #356686",
"n  c #397996",
"m  c #30708D",
"M  c #455C83",
"N  c #545E81",
"B  c #4D6282",
"V  c #4D658A",
"C  c #466988",
"Z  c #536584",
"A  c #5C6582",
"S  c #5C6B85",
"D  c #536B8C",
"F  c #566988",
"G  c #46728C",
"H  c #4D748F",
"J  c #5B738D",
"K  c #55718C",
"L  c #4C6D92",
"P  c #546E93",
"I  c #457A93",
"U  c #497998",
"Y  c #547195",
"T  c #5B7594",
"R  c #5C7B95",
"E  c #597A9B",
"W  c #636B83",
"Q  c #646984",
"!  c #657283",
"~  c #63748C",
"^  c #687A88",
"/  c #647C95",
"(  c #6A7C93",
")  c #647E9A",
"_  c #607792",
"`  c #7C7F8A",
"'  c #837D8E",
"]  c #3B8299",
"[  c #538A8D",
"{  c #5C8389",
"}  c #41839C",
"|  c #49849C",
" . c #53849B",
".. c #568B94",
"X. c #67868D",
"o. c #748A8B",
"O. c #6C8294",
"+. c #66819B",
"@. c #6B849C",
"#. c #6B879A",
"$. c #758B9C",
"%. c #758797",
"&. c #689599",
"*. c #78979B",
"=. c #7B908C",
"-. c #7DA198",
";. c #498BA2",
":. c #5789A2",
">. c #5191A4",
",. c #638CA2",
"<. c #6D8BA1",
"1. c #6D84A0",
"2. c #748DA2",
"3. c #7A8FA1",
"4. c #6C9CA3",
"5. c #689AA9",
"6. c #7592A4",
"7. c #7B93A4",
"8. c #729CA4",
"9. c #759DAB",
"0. c #7D99A9",
"q. c #6BA4AB",
"w. c #7BA2A4",
"e. c #7CA4AB",
"r. c #72A9AD",
"t. c #7CAAAD",
"y. c #74A4A8",
"u. c #7BA4B2",
"i. c #75ACB2",
"p. c #7BADB2",
"a. c #73A7B0",
"s. c #7BB1B5",
"d. c #7CB4BB",
"f. c #75B6BB",
"g. c #6BA5B4",
"h. c #7FB9C6",
"j. c #898888",
"k. c #849487",
"l. c #868996",
"z. c #87989C",
"x. c #959D9A",
"c. c #A39F99",
"v. c #8CA39D",
"b. c #82A39C",
"n. c #97A39D",
"m. c #A6A19C",
"M. c #829AA5",
"N. c #8D9BA5",
"B. c #859CAA",
"V. c #8A9FAB",
"C. c #8595A3",
"Z. c #909CA6",
"A. c #8CA4A4",
"S. c #84A2AA",
"D. c #8CA3AC",
"F. c #82ABAD",
"G. c #8CA9AD",
"H. c #82A4A3",
"J. c #92A9A5",
"K. c #92A6AD",
"L. c #94ABAC",
"P. c #98A5A6",
"I. c #9BB2AE",
"U. c #83A6B2",
"Y. c #8CA4B1",
"T. c #84ADB4",
"R. c #8CAAB2",
"E. c #8CAEB9",
"W. c #82ACBA",
"Q. c #94ACB3",
"!. c #9AAEB4",
"~. c #95AAB5",
"^. c #84B1B4",
"/. c #8AB3B5",
"(. c #83B4BB",
"). c #8BB5BA",
"_. c #84B9BE",
"`. c #8DB9BD",
"'. c #8FB8B7",
"]. c #96B1B6",
"[. c #9CB2B5",
"{. c #94B2B9",
"}. c #9CB5BA",
"|. c #9DB9BD",
" X c #90BBBE",
".X c #A8A8A7",
"XX c #AAB3AE",
"oX c #A1B4B4",
"OX c #A3B9B4",
"+X c #A2B5BB",
"@X c #A3BBBD",
"#X c #AABDBD",
"$X c #ACB3B6",
"%X c #B8B6B5",
"&X c #ABC0BE",
"*X c #B0C4BF",
"=X c #8CBCC3",
"-X c #87B7C1",
";X c #98BCC1",
":X c #A2BCC1",
">X c #A7BBC2",
",X c #B2BEC2",
"<X c #A6C0C4",
"1X c #ABC2C4",
"2X c #ADC3CB",
"3X c #AFC8CC",
"4X c #B3C4C5",
"5X c #B1C5CB",
"6X c #B2C9CE",
"7X c #BBC9CE",
"8X c #B4CBD3",
"9X c #BDCDD2",
"0X c #B1C6D1",
"qX c #AFD1D4",
"wX c #B4D3D5",
"eX c #BED2D6",
"rX c #AFC7D0",
"tX c #8EC4C9",
"yX c #CACECE",
"uX c #D1D0CF",
"iX c #C3D1D6",
"pX c #C5D4D9",
"aX c #C8D8DB",
"sX c #D7D8D8",
"dX c #C1CFD4",
"fX c #CBDCE1",
"gX c #D4E3E5",
"hX c #DBE6E8",
"jX c #DCE6E9",
"kX c #CFE2E5",
/* pixels */
"                                                                                                                                ",
"                                                                                                                                ",
"                                                                                                                                ",
"                                                                                                                                ",
"                                                                                                                                ",
"                                                                                                                                ",
"                                                                                                                                ",
"                                                                                                                                ",
"                                                                                                                                ",
"                                                                                                                                ",
"                                                                                                                                ",
"                                                                                                                                ",
"                                                                                                                                ",
"                                                                                                                                ",
"                                                                                                                                ",
"                                                                                                                                ",
"                                                                                                                                ",
"    fXfXfXeXwXwXqXwXqXqXwXwXwX2X3X0X8XyXuXyX9X9X9XdXiXuXuXuXpXpXaXpXaXsXsXsXaXaXpXpXkXgXgXkXaXhXjXjXjXjXjXhXhXhXjXhXgXgXgXhX    ",
"    9X@X@X).i.s.i.i.i.i.i.t.p.*.y.H.A.n.v.n.P.P.S.P.P.m.n..X.XP.E..XXXXXOXXX[.].T.I.;X X=X=X`.6X6X6X8X8X7X6X2X2X6X6X1X1X2XiX    ",
"    8X:X@X).s.i.r.r.q.r.r.y.y.k.*.x.n.v.H.v.m.m.n.m.m.n.v.P..X.XL..XXXoXL.XX` A.L.z.S.e. X`.`.|.>X}.[.+X:X:X>X#X1X[.~.}.2XeX    ",
"    8X|.|.'.p.r.&.&.&.&.4.{ X.h h o.*.b.b.b.v.v.c.n.J.v.G.P.P.l..Xl.%.K.$.%.f =.z.O.X.9.e.u.`.}.@X+XoX@XoX+X#X4X#XoX+X+X:XeX    ",
"    8X;X|.'.d.y.t.i.r.t.i.t.i.w.-.w.-.b.f.t.v.v.A.v.F.b.d.H.z.s r t %.7 B t t ( Z i 0 V C 9.=X}.1X&X1X#X&X1X*X4X&X#X#XOX<XiX    ",
"    8X|.|.`.s.d.s.s.i.i.p.s.p.5.*.&.r.d.f.d.d.8.w.w.f.i.f.d.u.S.S.7.<.=XtX=X).G.0.T.T.U.{./.`.1X&X@X:X|.D.~.@X1X>XY.D.~.@XiX    ",
"    8X;Xu.5.5.a.i.q.| q.i.5.H v v > C :.d.h.g.U q.f.f.;.g.h.i.e.(.8.u.-X9.W.<.9.9.u.<.R T.^.).@X@X:XD.Y.M.D.}.#X}.L.!.}.:XeX    ",
"    8X{.,.n | >.} ] n n m , & V M & & & v U I L U U | U U h.,.D d.T % B V V F ,.V M 0 +.B 6.).:X:X<X:X@XQ.:X:X>X<X:X@XOX:XiX    ",
"    0XE.,. .U n ] ] ;.} , & V V.!.Y.B.2.+.Y L V L Y L Y Y :.R Z 9.i.d._.U.9.(.(.^.e.8.T././.T.:X:X:X:X<X<X:X:X@X:X:XOX}.}.9X    ",
"    3XE. .n I n ;.;.;.G , - ) ~.#X,X+X[.V.D > & v M P ) T D D N e._._._._.*.x e.^.T.u.^.^.^.t.|.|.:X:X:X|.|.:X;X:X@XOXI.}.9X    ",
"    rXT.,. . .n ] ;.;.b & v @.@X4X4X4X@X~.T V +.6.Y.Y.E T N @ 7 q u.(.(.=.k 2 2 F.).^.^.^.p.t.@X|.|.|.|.:X|.:X:X:X:X:X}.|.iX    ",
"    2XT. .I n n } >.;.b v M 7.@X}.Y.!.+XY.T T 0.R.~.}.2.T e 7 7 7 u.=X^.j 2 l 2 o.U.t.^.T.T.8.@X|.|.|.|.|.:X:X:X:X|.|.I.}.9X    ",
"    2XT. .U  .} ] >.>.0.2.V K.+XY.@.1.[.T V ) 2.<.6.~.0.Y N Q Q S u.=X_.k.l l l e.e.w././.y.R :X:X|.:X:X|.@X:X:X:X|.I.[.}.iX    ",
"    rXE.I m m b m I I }.D.P !.#X}.7.2.}./ T 1.) @.M 7.V Y A ( Q _ W.=X=XF.c c k.^.E.e.).).U.M ].:X|.:X|.].}.:X:X:XV.Y.M.}.iX    ",
"    3XT.G b < < : < : 2.D./ K.#X+X!.~.+X2.+.2.2.) P <.D T Q Q t N p.=X=X=X=X_.=X`.).).`.).R $.Y.:X|.|.}.}.}.|.|.:XB.( *.}.iX    ",
"    3XR.G b b b : < < p B.M.D.[.#X+XQ.D.2.@.6.S.7./ T 0.E S W a N a._._.=X_._.(.(.t.T./.T.#.$ @.@X:X|.}.}.].}.|.|.V.O.*.}.iX    ",
"    3XU.G * * < < : * : F $.B.K.oX~.Q.7.J ( O.7.$.R V 7.) A W r t p._._.=X(.(.(.p.S.*.F.F.G.9 0.|.:X|.|.}.}.}.}.}.Q.( B.}.iX    ",
"    2XU.G * : : : : * : B J $.V.!.~.3._ B / _ 2.2.$.+.B.+.S ! a t J Z Z F Z J 9.u.w.*.F.t.e.K }.}.|.|.|.}.|.|.}.}.V.( 7.}.iX    ",
"    2XU.G * * : : : * > Z J ~ $.D.L.M._ Z Z T ) 6.@.T $.T A a y r e e e e e e t ) e.F.^.t.F.8.}.}.}.}.|.|.|.}.].].Q.7.D.~.iX    ",
"    2Xe.G = * : = > > 0 S $.J S O.M.D.B.Z V D / @.2.7./ D A W y e y a r A A y Q Q O.e.T.F.F.t.}.}.].].}.}.Q.].].~.].].].~.iX    ",
"    3XU.G * : : > 0 0 w Z C.D.$.S i _ / / T V V K / / ~ S S o.f r ! a y ^ W r ^ ^ ! X.w.F.F.F.}.}.].}.}.].Q.].].~.Q.$.B.Q.iX    ",
"    5XU.G * : 0 i B q w q $.Q.!.K.q ( $.0 B K V K O.S Q A s a f f a s a W f a y a f s S *.F.F.].L.].].L.].L.~.J.D.7.O.S.Q.iX    ",
"    5XU.C 0 B Z Z q B w 8 S oX[.%.q Z %.% % 9 q $.V.8 7 s ! ^ ! ^ f W ! W f a f f Q ! Q #.F.e.L.L.L.A.A.L.A.A.L.A.$.( M.Q.pX    ",
"    2X0.B 9 Z Z B q i q w Z D.!.L.A.s O.q 9 0 - % q 8 # $ 7 7 o a f e r e 7 r y r Q ! e J e.y.L.J.v.v.D.J.J.D.G.z.$.O.M.R.pX    ",
"    2X6.M 0 B Z B q q i Z q ~ !.[.z.q ~ S 9 0 - 9 & - # # # @ $ 3 r 3 3 . o . o 3 o 3 o o Z 4.Q.L.L.Q.L.L.Q.L.D.D.7.M.D.R.iX    ",
"    2X6.0 > q B q q 0 q w 0 q V.I.8 w s i 8 9 w 8 & 9 % @ @ % # . 3 3 + . . X . + . X o O 7 8.~.~.Q.Q.R.G.R.G.R.R.D.D.G.R.iX    ",
"    2X6.0 0 - 0 0 9 w 8 8 8 0 ^ %.# i q w % % q % $ $ # 3 $ @ # . 6 g g 3 . 5 1 4 . o 8 o J 4.].Q.l.C.l.l.C.' l.' ' l.z.Y.iX    ",
"    2X6.F B ; ; ; ; ; ; ; ; ; 4 s 4 4 4 6 3 3 4 3 3 3 3 5 4 5 5 5 j j.j.6 5 g h 6 h X.i J 8.4.Q.K.Z.Z.N.N.D.N.N.N.N.z.V.D.iX    ",
"    5Xe.S.8.[ [ ..[ ..[ [ [ [ d d d { { j ^ ^ ! ! ! ^ ^ z ^ X.^ X.o.%.*.l.&.&.$.X.X.*.8.8.*.&.Q.Q.Q.~.Q.R.Q.Q.D.D.D.S.B.A.iX    ",
"    aX7X7X5X|.|.|.|.|.|.|.|.|.~.].}.}.}.%X$XoX}.}.oX}.+X%X$X}.+X+X+X+X#X%X:X@X@X@X+X1X5X1X<X:X7X9X9X9X9X7X7X7X7X4X4X,X,X,XsX    ",
"                                                                                                                                ",
"                                                                                                                                ",
"                                                                                                                                ",
"                                                                                                                                ",
"                                                                                                                                ",
"                                                                                                                                ",
"                                                                                                                                ",
"                                                                                                                                ",
"                                                                                                                                ",
"                                                                                                                                ",
"                                                                                                                                ",
"                                                                                                                                ",
"                                                                                                                                ",
"                                                                                                                                ",
"                                                                                                                                ",
"                                                                                                                                ",
"                                                                                                                                "
};
