/* XPM */
static char *_0f80e8d4f014e27f1c1030950b45f13j729YaOi3zMekZjl[] = {
/* columns rows colors chars-per-pixel */
"64 64 186 2 ",
"   c None",
".  c #030303",
"X  c #060708",
"o  c #070809",
"O  c #0A0B0D",
"+  c #0C0F11",
"@  c #0E1215",
"#  c #101417",
"$  c #12161A",
"%  c #14191E",
"&  c #1A1B1C",
"*  c #301C0F",
"=  c #231D18",
"-  c #271E17",
";  c #3E1F11",
":  c #321E11",
">  c #342013",
",  c #3B2415",
"<  c #33251C",
"1  c #3C2718",
"2  c #3D2A1B",
"3  c #35281A",
"4  c #362B0B",
"5  c #161C21",
"6  c #191F24",
"7  c #1B2126",
"8  c #1D242B",
"9  c #1F282F",
"0  c #1F2830",
"q  c #202325",
"w  c #22272B",
"e  c #242A2E",
"r  c #2C2E2E",
"t  c #362B22",
"y  c #232C33",
"u  c #252F39",
"i  c #2C3136",
"p  c #27313B",
"a  c #29333E",
"s  c #2E383B",
"d  c #353638",
"f  c #343B3F",
"g  c #3F3D3B",
"h  c #3A322D",
"j  c #523E0D",
"k  c #432817",
"l  c #432D1D",
"z  c #4C2D1A",
"x  c #462716",
"c  c #512E19",
"v  c #512B17",
"b  c #48361C",
"n  c #55321C",
"m  c #5D351D",
"M  c #5F391F",
"N  c #4F3B0B",
"B  c #432F20",
"V  c #463224",
"C  c #4B3722",
"Z  c #533621",
"A  c #543B26",
"S  c #5D3B23",
"D  c #5A3F28",
"F  c #573E28",
"G  c #423931",
"H  c #633C21",
"J  c #6A541B",
"K  c #755B19",
"L  c #664D18",
"P  c #5B412B",
"I  c #574227",
"U  c #694226",
"Y  c #63442B",
"T  c #6B4329",
"R  c #67492E",
"E  c #68462A",
"W  c #71482A",
"Q  c #7C4E2E",
"!  c #704728",
"~  c #6F502D",
"^  c #7B5C20",
"/  c #6A4B30",
"(  c #644B35",
")  c #704F33",
"_  c #6E5036",
"`  c #735134",
"'  c #7D5232",
"]  c #7E5839",
"[  c #785637",
"{  c #7C6427",
"}  c #2B3641",
"|  c #2D3A45",
" . c #2F3D49",
".. c #313B44",
"X. c #313E4B",
"o. c #33414D",
"O. c #3D4247",
"+. c #354452",
"@. c #384755",
"#. c #3A4957",
"$. c #3B4C5B",
"%. c #3F4F60",
"&. c #3F5161",
"*. c #464546",
"=. c #484747",
"-. c #484748",
";. c #45474A",
":. c #404F5E",
">. c #56595D",
",. c #55585C",
"<. c #425465",
"1. c #445769",
"2. c #465A6C",
"3. c #485C6F",
"4. c #4D5760",
"5. c #5D5F63",
"6. c #485D70",
"7. c #4C6175",
"8. c #4F6479",
"9. c #51677C",
"0. c #52697E",
"q. c #616367",
"w. c #636569",
"e. c #787C7F",
"r. c #83650E",
"t. c #80502D",
"y. c #815533",
"u. c #845836",
"i. c #855C3A",
"p. c #8B5F3B",
"a. c #8D5B35",
"s. c #8D6E2B",
"d. c #89603D",
"f. c #846239",
"g. c #9A663F",
"h. c #91613B",
"j. c #8F7637",
"k. c #8E6541",
"l. c #926641",
"z. c #956A45",
"x. c #9B6C44",
"c. c #9F7047",
"v. c #9B704A",
"b. c #A26D44",
"n. c #A07147",
"m. c #A07147",
"M. c #A37349",
"N. c #A8764B",
"B. c #AC784D",
"V. c #B57C4F",
"C. c #AB7A52",
"Z. c #B47E51",
"A. c #CE9F1D",
"S. c #E3AF1A",
"D. c #F7BE15",
"F. c #CAA431",
"G. c #BB8154",
"H. c #BB8459",
"J. c #C28556",
"K. c #FAD874",
"L. c #556C83",
"P. c #577087",
"I. c #587087",
"U. c #5B748C",
"Y. c #5D7790",
"T. c #5D7790",
"R. c #5F7991",
"E. c #7B7F82",
"W. c #627B93",
"Q. c #7F8286",
"!. c #82858A",
"~. c #868A8E",
"^. c #8B8E93",
"/. c #8D9095",
"(. c #92959A",
"). c #96999E",
"_. c #999CA0",
"`. c #A4A7AC",
"'. c #AEB1B6",
"]. c #B5B7BB",
"[. c #A9ACB1",
"{. c #BBBDC1",
"}. c #BEC1C5",
"|. c #C7C9CC",
" X c #C7C9CD",
".X c #CACCD0",
/* pixels */
"                                                                                                                                ",
"                                                                                                                                ",
"                                          . . O p o.o.o.X.o.$.$.%.$.o.. . + .                                                   ",
"                                      . X $ 7.} 6.6.6.6.6.6. .y 0.5 8 $.+.} X X .                                               ",
"                                  O 5 $.Y.0.X.$.+ <.6.6.6.6.2.5 @ p 6.&.8 Y.Y.Y.a +                                             ",
"                              . X &.Y.Y.Y.$.o.2.5 o.6.6.6.6.6.<.1.6.<.$ $.Y.U.$.+.o.. .                                         ",
"                          X 0 X.% #.Y.Y.9.7 3.U.<.u 3.2.1.6.6.6.<.X.#.o R.L.u 8 9.9.$.#.$ 7                                     ",
"                          % <.6.$.X.U.Y.U.2.y L.0.5 +.y 5 $.&.6.| #.u 6.Y.U.6.8.U.Y.U.7.u #.+                                   ",
"                        | 6.6.6.6. .$.Y.Y.Y.Y.Y.Y.1.O @ @.6 @ ..#. .u Y.Y.Y.U.8.U.Y.&.$ <.6. .X                                 ",
"                    . 8 2.6.6.6.6.#.# 3.9. . . .7.W. . .6.6.@. .2.| L.Y.Y.L. .$.U.6.$ @.+.6.6.+ O                               ",
"                    % <.6.6.6.6.6.3. .8 o.<.<.<.L.Y.2.% 2.6.6.6.2.X.Y.Y.p } 1.I.L.6 } 2.$.6.6.$ a O                             ",
"                  . #.6.6.6.6.6.6.3.+.r 7 y y y y y w O 7 8 7 8 $ 8 y y 5 7 y y 4.a 2.3.&.6.6.<.2...X                           ",
"                . % } 6.6.6.6.3.<.,.< E c x H U U H x n H ! H S ; S H T H n ; S P = @.<.u 6.6.6.6.X.X                           ",
"                . 7.+.8 1.6.6.#.= W t.W m n i.h.h.i.m W i.g.i.u.v u.i.g.i.W c y.p.b.D f u 6.6.6.6.e } .                         ",
"              . +.@.U.8 p 6.@.t Y Q t.W U H n.B.B.n.H u.n.Z.n.x.m x.n.Z.n.p.m z.M.J.N.R y 6.6.$.w u p |                         ",
"            X y Y.#.2.U.$ o.q z W Q a.z.Q H n.B.B.n.H u.n.Z.n.x.m x.n.Z.n.p.m z.M.J.N.' > #.<.@ % +.9.I.@                       ",
"            & @.Y.Y.$.Y.2.O.< n W y.V.c.' H n.B.B.n.H u.n.Z.n.x.m x.n.Z.n.p.m z.M.J.N.' H G 7 } Y.$.Y.P.+                       ",
"            @ 0.Y.U.U.Y.U.h M n W b.G.n.' H n.B.B.n.H u.n.Z.n.x.m x.n.Z.n.p.m z.M.J.N.' H [ w U.Y.Y.Y.U.#.                      ",
"            X.U.Y.#.y L.X.1 H n y.B.G.n.' H n.B.B.n.H u.n.Z.n.x.m x.n.Z.n.p.m z.M.J.N.' H x.g U.P.L.L.Y.1..                     ",
"            @.Y.Y.Y.8.8 e T H m x.B.G.n.' H n.B.B.n.H u.n.Z.n.x.m x.n.Z.n.p.m z.M.J.N.' H n.( +.| 8 u Y.6.+                     ",
"            7 } } } } p 3 W H H x.B.G.n.' H n.B.B.n.H u.n.Z.n.x.m x.n.Z.n.p.m z.M.J.N.' H n.` . 7 } } } } $                     ",
"          X O X . . . O 1 W H T n.B.G.n.' H n.B.B.n.H u.n.Z.n.x.m x.n.Z.n.p.m z.M.J.N.' H n.` o O O O O O O                     ",
"          % #.a @ % 8 1.V W H T n.B.G.n.' H n.B.B.n.H u.n.Z.n.x.m x.n.Z.n.p.m z.M.J.N.' H n.` &.2.$.$.$.<.2.O                   ",
"          . X y 7.Y.9.X.B W H T n.B.G.n.' H n.B.B.n.H u.n.Z.n.x.m x.n.Z.n.p.m z.M.J.N.' H n.` <.6 u u y 5 o.O                   ",
"          % #.U.Y.Y.Y.<.B W H T n.B.G.n.' H n.B.B.n.H u.n.Z.n.x.m x.n.Z.n.p.m z.M.J.N.' H n.` 1.#.Y.Y.U.} . .                   ",
"          8 U.Y.Y.Y.Y.P.V W H T n.B.G.n.' H n.B.B.n.H u.n.Z.n.x.m x.n.Z.n.p.m z.M.J.N.' H n.` 6.R.Y.Y.Y.L.%.O                   ",
"          8 P.Y.Y.Y.Y.P.V W H T n.B.G.n.' H n.B.B.n.H u.n.Z.n.x.m x.n.Z.n.p.m z.M.J.N.' H n.` 6.Y.Y.Y.Y.Y.9.+                   ",
"          $  .X.X.X.X. .l W H T n.B.G.n.' H n.B.B.n.H u.n.Z.n.x.m x.n.Z.n.p.m z.M.J.N.' H n.` p X.X.X.X.X.} o                   ",
"          . . . X . . . 1 W H T n.B.G.n.' H n.B.B.n.H u.n.Z.n.x.m x.n.Z.n.p.m z.M.J.N.' H n.` . . X . . . . .                   ",
"          % #.&.2.O X.#.- 1 > , A P Y A l > A D P A > l A P A A * A A P A C : A A R D l > A 2 X.&.<.5 $.&.+.O                   ",
"          5 1.3.6 9.y #.O.q.q.w.w.q.q.q.q.w.w.q.q.q.w.w.q.q.q.q.w.w.q.q.q.q.w.w.q.q.q.q.w.q.;.+.+.5 $ 8 2.&.O                   ",
"          5 <.7 9 6.6.1.,.^.Q.{.[.^.^.^.~.|.).^.^.^.'.{.^.^.^.^.].`.^.^.^.^.].).^.^.^.^.|.(.w.o. .6.2.8 <.&.O                   ",
"          5 <.a $ 6.6.1.,.^.^.Q.^.^.^.^.!.~.^.^.^.^.Q.!.^.^.^.^.e.!.^.^.^.!.E.^.^.^.^.!.~.^.w.#.6.6.3.o.y &.O                   ",
"          5 1.2.<.6.6.1.w d d d d d d d d d d d d d d d d d d d d d d d d d d d d d d d d d w #.6.8.a 2.1.&.O                   ",
"          5 1.6.6.6.6.1.2 H n S d.l.x.i.T n d.l.l.d.n W d.x.d.i.z i.d.z.d.` c u.d.M.d.T n d.Y #.6.6.6.6.6.&.O                   ",
"          O 8 8 8 8 8 8 l W H T n.B.G.n.' H n.B.B.n.H u.n.Z.n.x.m x.n.Z.n.p.m z.M.J.N.' H n.` 5 8 8 8 8 8 6 X                   ",
"          6 6.6.6.8.8.6.V W H T n.B.G.n.' H n.B.B.n.H u.n.Z.n.x.m x.n.Z.n.p.m z.M.J.N.' H c.` $.8.8.8.8.8.1.O                   ",
"          6 2.#.7.W.R.P.V W H T n.B.G.n.' H n.B.B.n.H u.n.Z.n.x.m x.n.Z.n.p.m z.M.J.k.b b d.` 6.Y.Y.6.2.7.9.+                   ",
"          % ..$.Y.W.R.P.V W H T n.B.G.n.' H n.B.B.n.H u.n.Z.n.x.m x.n.Z.n.p.m z.M.J.s.D.K.j./ 6.Y.Y.+.}  . .O                   ",
"          8 P.Y.Y.Y.Y.P.V W H T n.B.G.n.' H n.B.B.n.H u.n.Z.n.x.m x.n.Z.n.p.m z.x.` K D.K.F.t 6.Y.Y.Y.Y.L.o.O                   ",
"          8 P.Y.Y.Y.Y.P.V W H T n.B.G.n.' H n.B.B.n.H u.n.Z.n.x.m x.n.Z.n.p.m z.z.J b A.S.{ J 6.Y.Y.Y.Y.Y.9.+                   ",
"          8 P.Y.Y.Y.Y.P.V W H T n.B.G.n.' H n.B.B.n.H u.n.Z.n.x.m x.n.Z.n.p.m z.x.^ L I C f.{ 6.Y.Y.Y.Y.Y.9.+                   ",
"          @ a } } } } a l W H T n.B.G.n.' H n.B.B.n.H u.n.Z.n.x.m x.n.Z.n.p.m z.M.x.K r.r.4 b y } } } } } u X                   ",
"          $ o.+.+.+.+.o.B W H T n.B.G.n.' H n.B.B.n.H u.n.Z.n.x.m x.n.Z.n.p.m z.M.J.' j N ~ / } +.+.+.+.+. .O                   ",
"          5 1.6.6.6.6.1.V W H T n.B.G.n.' H n.B.B.n.H u.n.Z.n.x.m x.n.Z.n.p.m z.M.J.M.W m x.` #.6.6.6.6.6.&.O                   ",
"          # #.6.6.6.6.1.V W H T n.B.G.n.' H n.B.B.n.H u.n.Z.n.x.m x.n.Z.n.p.m z.M.J.N.' H n.` #.6.6.6.6.6.&.O                   ",
"          # y 8 1.X.u 1.V W H T n.B.G.n.' H n.B.B.n.H u.n.Z.n.x.m x.n.Z.n.p.m z.M.J.N.' H n.` #.9.6.6.6.1.5 X                   ",
"          i &.$.u a &.1.V W H T n.B.G.c.' H n.B.B.n.H u.n.Z.n.x.m x.n.Z.n.p.m z.M.J.N.' H n.` #.7.$.% 5 <.+.O                   ",
"          s 2.6.2.2.6.1.V W H T n.B.G.n.' H n.B.B.n.H u.n.Z.n.x.m x.n.Z.n.p.m z.M.J.N.' H n.` #.6.3.7.1.3.&.O                   ",
"          e 2.6.6.6.6.1.V W H T n.B.G.c.' H n.B.B.n.H u.n.Z.n.x.m x.n.Z.n.p.m z.M.J.N.' H n.` #.6.6.6.6.6.&.O                   ",
"          O % 5 5 5 5 % 1 W H T n.B.G.c.' H n.B.B.n.H u.n.Z.n.x.m x.n.Z.n.p.m z.M.J.N.' H n.` $ 5 5 5 5 5 % X                   ",
"          f 0.L.L.L.L.8.< z k l / ` [ / Z k / ) ` / k A / [ / R , R / ` / D , R / ] / Z k / C X.L.L.L.L.L.6.+                   ",
"          ..U.Y.Y.W.Y.P.O.5.5.5.5.5.5.5.5.5.5.5.5.5.5.5.5.5.5.5.5.5.5.5.5.5.5.5.5.5.5.5.5.5.>.e Y.Y.6.Y.Y.9.+                   ",
"          e ..<.<.Y.Y.P.>.^.!.}.[.^.^.^.^..X).^.^.^.'..X^.^.^.^.'.].^.^.^.^.{._.^.^.^.(. X(.!.i Y.Y.&.U.U.9.+                   ",
"          i $.$.:.Y.Y.P.>.^.^.!.~.^.^.^.!.~.^.^.^.^.!./.^.^.^.^.!./.^.^.^.Q.Q.^.^.^.^.!.~.^.!.i Y.Y.L.y o.X.X                   ",
"          ..U.U.U.Y.Y.P.i *.*.*.*.*.-.*.*.*.*.*.*.*.*.*.*.=.*.*.*.*.*.=.*.*.*.*.*.-.*.*.*.*.*.w Y.Y.U.#.8.6.O                   ",
"          ..U.Y.Y.Y.Y.P.t Z z Z [ i.k.[ H z [ i.i.[ z Y [ d.[ [ x ` [ p.[ / z ` ] l.u.Y z [ F $.Y.Y.Y.Y.Y.9.+                   ",
"          q u u u u u y l W H T n.B.G.n.' H n.B.B.n.H u.n.Z.n.x.m x.n.Z.n.p.m z.M.J.N.' H n.` 8 u u u u u y X                   ",
"          e @.#.#.#.#.+.B W H T n.B.G.n.' H n.B.B.n.H u.n.Z.n.x.m x.n.Z.n.p.m z.M.J.N.' H n.`  .#.#.#.#.#.o.O                   ",
"          i 2.6.$.<.6.1.V W H T n.B.G.n.' H n.B.B.n.H u.n.Z.n.x.m x.n.Z.n.p.m z.M.J.N.' H n.` #.6.6.$.6.6.&.O                   ",
"          i 2.6.7 <.#.1.V W H T n.B.G.n.' H n.B.B.n.H u.n.Z.n.x.m x.n.Z.n.p.m z.M.J.N.' H n.` #.6.<.} @.6.&.O                   ",
"          e 2.@.} 7.$.7.V W H T n.B.G.n.' H n.B.B.n.H u.n.Z.n.x.m x.n.Z.n.p.m z.M.J.N.' H n.` $.X.1.&.@ 1.&.O                   ",
"            3.2.2.6.6.2.V W H T n.B.G.n.' H n.B.B.n.H u.n.Z.n.x.m x.n.Z.n.p.m z.M.J.N.' H n.` 7 2.6.3.3.6.&.O                   ",
"              #.+.+.+.o.B ! H T v.C.Z.v.' H v.N.N.v.H u.v.Z.v.z.m z.v.C.v.i.m z.v.H.M.' H v._ a +.+.+.+.+. .O                   "
};
