/* XPM */
static const char *cmVzaXplZCtpZGxlK2ZhY2U_[] = {
/* columns rows colors chars-per-pixel */
"64 64 201 2 ",
"   c #161513",
".  c #1A1917",
"X  c #1C1B19",
"o  c #191614",
"O  c #211A17",
"+  c #231E1A",
"@  c #291F1A",
"#  c #201716",
"$  c #1E241C",
"%  c #24231D",
"&  c #2C221C",
"*  c #2B2B1E",
"=  c #212B1F",
"-  c #33241C",
";  c #3A261C",
":  c #3E291E",
">  c #1F1F21",
",  c #201F21",
"<  c #232222",
"1  c #2A2622",
"2  c #2C2B22",
"3  c #2D2C2B",
"4  c #25262A",
"5  c #332B25",
"6  c #3C2C23",
"7  c #302E2C",
"8  c #332721",
"9  c #223424",
"0  c #253A27",
"q  c #333323",
"w  c #3C3426",
"e  c #3B3B26",
"r  c #36332A",
"t  c #3B352D",
"y  c #3C3C2A",
"u  c #373829",
"i  c #2D2D31",
"p  c #2F3038",
"a  c #343434",
"s  c #3C3B34",
"d  c #31323A",
"f  c #3B3B3B",
"g  c #452B1F",
"h  c #452D21",
"j  c #4A2E21",
"k  c #433027",
"l  c #4E3123",
"z  c #45342A",
"x  c #4A352A",
"c  c #463C2A",
"v  c #533425",
"b  c #593827",
"n  c #523A2C",
"m  c #5B3B2A",
"M  c #503729",
"N  c #443C33",
"B  c #5B3F30",
"V  c #603F2C",
"C  c #3F402C",
"Z  c #2B5335",
"A  c #2D5A38",
"S  c #2A442E",
"D  c #30613D",
"F  c #43432C",
"G  c #47482F",
"H  c #4A4A2E",
"J  c #48472C",
"K  c #5D402F",
"L  c #58552B",
"P  c #4A4136",
"I  c #4B4C32",
"U  c #41413F",
"Y  c #4A4A39",
"T  c #474534",
"R  c #53493D",
"E  c #5A4234",
"W  c #4F5135",
"Q  c #515336",
"!  c #535539",
"~  c #56593B",
"^  c #595C3E",
"/  c #64412E",
"(  c #6A442F",
")  c #644433",
"_  c #694633",
"`  c #6D4936",
"'  c #694C3A",
"]  c #724E3A",
"[  c #704C37",
"{  c #615E34",
"}  c #76712F",
"|  c #646238",
" . c #6F6B34",
".. c #424242",
"X. c #4C4B4A",
"o. c #5C4E41",
"O. c #555441",
"+. c #5C5E41",
"@. c #5F5043",
"#. c #625446",
"$. c #645A4A",
"%. c #6C5D4D",
"&. c #625648",
"*. c #755946",
"=. c #5E6041",
"-. c #58735F",
";. c #486E52",
":. c #626544",
">. c #666847",
",. c #6B6C4B",
"<. c #656549",
"1. c #6F714D",
"2. c #71734F",
"3. c #7E7A43",
"4. c #746451",
"5. c #786755",
"6. c #7B6956",
"7. c #7A6B5D",
"8. c #747551",
"9. c #7A7B56",
"0. c #7D7E5A",
"q. c #777853",
"w. c #696968",
"e. c #677B6C",
"r. c #777676",
"t. c #83644F",
"y. c #866852",
"u. c #8C725C",
"i. c #84705D",
"p. c #92745C",
"a. c #8B7966",
"s. c #917B64",
"d. c #997B63",
"f. c #947F68",
"g. c #768C7C",
"h. c #9D953D",
"j. c #81825D",
"k. c #85865E",
"l. c #82835C",
"z. c #938D49",
"x. c #A39B48",
"c. c #ADA448",
"v. c #878661",
"b. c #878860",
"n. c #898A62",
"m. c #8D8D66",
"M. c #888764",
"N. c #96816C",
"B. c #9B846C",
"V. c #9F8167",
"C. c #94946B",
"Z. c #98986F",
"A. c #98976E",
"S. c #9D9C73",
"D. c #97877B",
"F. c #A1896F",
"G. c #A4866D",
"H. c #A48D73",
"J. c #AB8E72",
"K. c #AE957A",
"L. c #AB9276",
"P. c #B19679",
"I. c #B39A7E",
"U. c #BA9A7C",
"Y. c #B29275",
"T. c #7D9383",
"R. c #8F8E8F",
"E. c #8A938C",
"W. c #BD9E81",
"Q. c #B39C89",
"!. c #96A49A",
"~. c #BCA182",
"^. c #B4A193",
"/. c #A8ADAA",
"(. c #ADB6B0",
"). c #B4B4B4",
"_. c #A9B3AC",
"`. c #C4A283",
"'. c #CBAD8B",
"]. c #C7A788",
"[. c #CEB18F",
"{. c #D4B491",
"}. c #D8B592",
"|. c #DBB996",
" X c #DDBC99",
".X c #D7B898",
"XX c #E2BE99",
"oX c #BAC0BC",
"OX c #E5C29D",
"+X c #E9C39E",
"@X c #ECC6A1",
"#X c #EFC9A3",
"$X c #EFCCAB",
"%X c #EFCEB1",
"&X c #F0D2B8",
"*X c #C3C3C4",
"=X c #CCCCCD",
"-X c #D4D4D4",
";X c #D8D8D9",
":X c None",
">X c black",
/* pixels */
":X:X:X:X:X:X:X:X:X:X:X:X:X:X:X:X:X:X:X:X:X:X:X:X:X:X:X:X:X:X:X:X:X:X:X:X:X:X:X:X:X:X:X:X:X:X:X:X:X:X:X:X:X:X:X:X:X:X:X:X:X:X:X:X",
":X:X:X:X:X:X:X:X:X:X:X:X:X:X:X:X:X:X:X:X:X:X:X:X:X:X:X:X:X:X:X:X:X:X:X:X:X:X:X:X:X:X:X:X:X:X:X:X:X:X:X:X:X:X:X:X:X:X:X:X:X:X:X:X",
":X:X:X:X:X:X:X:X:X:X:X:X:X:X:X:X:X:X:X:X:X:X:X:X:X:X:X:X:X:X:X:X:X:X:X:X:X:X:X:X:X:X:X:X:X:X:X:X:X:X:X:X:X:X:X:X:X:X:X:X:X:X:X:X",
":X:X:X:X:X:X:X:X:X:X:X:X:X:X:X:X:X:X:X:X:X:X:X:X:X:X:X:X:X:X:X:X:X:X:X:X:X:X:X:X:X:X:X:X:X:X:X:X:X:X:X:X:X:X:X:X:X:X:X:X:X:X:X:X",
":X:X:X:X:X:X:X:X:X:X:X:X:X:X:X:X:X:X:X:X:X:X:X:X:X:X:X:X:X:X:X:X:X:X:X:X:X:X:X:X:X:X:X:X:X:X:X:X:X:X:X:X:X:X:X:X:X:X:X:X:X:X:X:X",
":X:X:X:X:X:X:X:X:X:X:X:X:X:X:X:X:X:X:X:X:X:X:X:X:X:X:X:X:X:X:X:X:X:X:X:X:X:X:X:X:X:X:X:X:X:X:X:X:X:X:X:X:X:X:X:X:X:X:X:X:X:X:X:X",
":X:X:X:X:X:X:X:X:X:X:X:X:X:X:X:X:X:X:X:X:X:X:X:X:X. . % t Y ! O.O.O.Y t % . . :X:X:X:X:X:X:X:X:X:X:X:X:X:X:X:X:X:X:X:X:X:X:X:X:X",
":X:X:X:X:X:X:X:X:X:X:X:X:X:X:X:X:X:X:X:X:X:X:X. r $.j.A.Z.C.C.C.Z.Z.S.S.S.M.<.t . . :X:X:X:X:X:X:X:X:X:X:X:X:X:X:X:X:X:X:X:X:X:X",
":X:X:X:X:X:X:X:X:X:X:X:X:X:X:X:X:X:X:X:X:XX Y 0.n.n.m.b.l.l.n.b.l.l.j.l.k.k.m.A.b.Y X :X:X:X:X:X:X:X:X:X:X:X:X:X:X:X:X:X:X:X:X:X",
":X:X:X:X:X:X:X:X:X:X:X:X:X:X:X:X:X:X:X. t 0.k.j.b.k.9.8.1.,.>.,.1.,.,.,.2.q.8.9.k.n.j.s . :X:X:X:X:X:X:X:X:X:X:X:X:X:X:X:X:X:X:X",
":X:X:X:X:X:X:X:X:X:X:X:X:X:X:X:X:X:XX +.n.k.n.0.2.,.,.2.1.:.+.! Q Q ! ~ ^ ~ ^ :.1.8.0.j.<.X :X:X:X:X:X:X:X:X:X:X:X:X:X:X:X:X:X:X",
":X:X:X:X:X:X:X:X:X:X:X:X:X:X:X:X:XX ,.k.9.9.8.>.^ ~ =.+.=.:.^ ^ ! ! ^ ^ +.=.:.+.+.>.:.1.8.8.% :X:X:X:X:X:X:X:X:X:X:X:X:X:X:X:X:X",
":X:X:X:X:X:X:X:X:X:X:X:X:X:X:X:XX ,.k.2.>.:.=.+.^ ! ! ~ ^ ! W Q ! ! ! W I I W ^ ^ +.^ ~ +.>.>.X :X:X:X:X:X:X:X:X:X:X:X:X:X:X:X:X",
":X:X:X:X:X:X:X:X:X:X:X:X:X:X:XX ,.9.,.>.+.+.W I W ! ! ! Q Q Q ! ! ! ~ ~ ! ! ! ~ ! W ~ =.+.! ^ ~ X :X:X:X:X:X:X:X:X:X:X:X:X:X:X:X",
":X:X:X:X:X:X:X:X:X:X:X:X:X:X. T 0.8.>.+.Q I Q ! Q Q I I I I I I I G J G I W ! ! ! ! W W ! +.:.=.T . :X:X:X:X:X:X:X:X:X:X:X:X:X:X",
":X:X:X:X:X:X:X:X:X:X:X:X:X:X% 1.,.=.! I W Q Q Q W I I J F J x.H F F z.G J G G J G I Q ~ ! ! ~ =.^ % :X:X:X:X:X:X:X:X:X:X:X:X:X:X",
":X:X:X:X:X:X:X:X:X:X:X:X:X. C ~ ~ W I Q I I I F e Q c.y q e { e e e } e q F x.H I G J I ! ! Q W I F . :X:X:X:X:X:X:X:X:X:X:X:X:X",
":X:X:X:X:X:X:X:X:X:X:X:X:X+ ! ! I Q W I J H c.q * * % % X X . X X . X X % % * q q Q | I I Q ! ~ ! I % :X:X:X:X:X:X:X:X:X:X:X:X:X",
":X:X:X:X:X:X:X:X:X:X:X:X. q ! ! Q I | } q * % X + t #.5.s.B.P.U.U.P.F.s.4.#.N % X e L e I | G W I J q . :X:X:X:X:X:X:X:X:X:X:X:X",
":X:X:X:X:X:X:X:X:X:X:X:X. C I W J y F e X . P %.u.~.{.|.OX@X#X#X#X#X#XOX X{.].P.6.N . % c h.G F y G F . :X:X:X:X:X:X:X:X:X:X:X:X",
":X:X:X:X:X:X:X:X:X:X:X:X. J 3.e z.L * .   R H.'.OX#X#X#X#X#X#X#X#X#X#X#X#X#X#X#XOXF.t o X 2 e Q G F | X :X:X:X:X:X:X:X:X:X:X:X:X",
":X:X:X:X:X:X:X:X:X:X:X:X. e L e F q X   %.I.}.#X#X#X#X#X#X@X#X#X#X#X#X#X#X#X#X#X#X'.K.r @ X q { L q q X :X:X:X:X:X:X:X:X:X:X:X:X",
":X:X:X:X:X:X:X:X:X:X:X:X. % q q * + O X K.'.#X#X#X#X#X#X#X@X#X#X#X#X#X#X#X#X#X#X#X@X~.f.X @ X * * * % . :X:X:X:X:X:X:X:X:X:X:X:X",
":X:X:X:X:X:X:X:X:X:X:X:X:X. X X + & ; 1 ].#X#X#X#X#X#X#X#X#X#X#X#X#X#X#X#X#X#X#X#X#X+XI.1 : - + X . . :X:X:X:X:X:X:X:X:X:X:X:X:X",
":X:X:X:X:X:X:X:X:X:X:X:X:XO ; g j j j 1  X#X#X#X#X#X#X#X#X#X#X#X#X#X#X#X#X#X#X#X#X#X#X[.1 j j g g ; X :X:X:X:X:X:X:X:X:X:X:X:X:X",
":X:X:X:X:X:X:X:X:X:X:X:X:X@ j l v v - R  X#X#X#X@X@X#X#X#X#X#X#X#X#X#XOX#X#X#X#X#X#X#X X2 g g v v g @ :X:X:X:X:X:X:X:X:X:X:X:X:X",
":X:X:X:X:X:X:X:X:X:X:X:X:X@ j j v h % H. X#X#X+X@X#X#X#X#X#X#X#X#X#X#X#X#X#XXX#X#X#X#X X$.@ h j l j @ :X:X:X:X:X:X:X:X:X:X:X:X:X",
":X:X:X:X:X:X:X:X:X:X:X:X:X+ j j b @ %.I.#XXX`.+X#X#X+X#X#X+X#X#X@X#X#X#X#X#X@X#X#X`.|.|.L.R & l l j & :X:X:X:X:X:X:X:X:X:X:X:X:X",
":X:X:X:X:X:X:X:X:X:X:X:X:XX j j l % K..Xd.g g l m }.#X#X#X@X#X#X+X@X#X#X#X#X@X*.l g g ' W.L.+ j l j @ :X:X:X:X:X:X:X:X:X:X:X:X:X",
":X:X:X:X:X:X:X:X:X:X:X:X:X. - g h t ~.}.t.W.U.G.u.) p.@X#X#X@X#X#X#X#X#X#XY.) t.V.Y.`.d.J.~.r : l j + :X:X:X:X:X:X:X:X:X:X:X:X:X",
":X:X:X:X:X:X:X:X:X:X:X:X:X:XX g ; t |.@XN.3 U $ % #.p.y.U.XX#X#X#X#X|.].p.u.%.2 $ f 7 &.@X{.N ; j g . :X:X:X:X:X:X:X:X:X:X:X:X:X",
":X:X:X:X:X:X:X:X:X:X:X:X:X:X  - - N  X#XP ).!.A 9 9 % N.}.+X#X#X+X#X@X}.W.5 9 = Z e.;X3 OX}.#.@ g & . :X:X:X:X:X:X:X:X:X:X:X:X:X",
":X:X:X:X:X:X:X:X:X:X:X:X:X:X. X X 6. X#Xr *Xg.Z O S -.s L.+X#X#X@XXX#X{.2 e.A # 0 ;.-XU {.}.d.1 . . :X:X:X:X:X:X:X:X:X:X:X:X:X:X",
":X:X:X:X:X:X:X:X:X:X:X:X:X:X. z X u.|.#XP /._.D Z A !.).N #X#X#X#X#X#X5.r.=XZ Z D T.=X3 OXXXu.+ o.  :X:X:X:X:X:X:X:X:X:X:X:X:X:X",
":X:X:X:X:X:X:X:X:X:X:X:X:X:X:X  . X 5.+Xs.w.-X(.T./.;Xw.i.#X#X#X@X+X#X~.f -XoXE.!.;XR.R @Xf.X .   :X:X:X:X:X:X:X:X:X:X:X:X:X:X:X",
":X:X:X:X:X:X:X:X:X:X:X:X:X:X:X:X. n 8 P {.N r.*X=X*Xw.N OX#X#X#X@X+X#XOX5.X.).=X=XR.7 ~.$.% z . :X:X:X:X:X:X:X:X:X:X:X:X:X:X:X:X",
":X:X:X:X:X:X:X:X:X:X:X:X:X:X:X:X. - _ 6 2 H.4.2 3 5 5.OX#X#X#X@XOX#X#X#X#XB.t 3 1 R 4.1 w m @ :X:X:X:X:X:X:X:X:X:X:X:X:X:X:X:X:X",
":X:X:X:X:X:X:X:X:X:X:X:X:X:X:X:X:XX h V n @ P B.'.#X#X#X{.J.%.2 X N 4.f.K.~.~.H.5.5 5 ) b : . :X:X:X:X:X:X:X:X:X:X:X:X:X:X:X:X:X",
":X:X:X:X:X:X:X:X:X:X:X:X:X:X:X:X:X:X+ l v _ E - + X % X + 5 x _ [ ) x 6 5 & 1 8 z K _ ) h + :X:X:X:X:X:X:X:X:X:X:X:X:X:X:X:X:X:X",
":X:X:X:X:X:X:X:X:X:X:X:X:X:X:X:X:X:X. + h ) ) ) ] ` / ` ` _ B n M b V / ` ( _ ) / V v h @ . :X:X:X:X:X:X:X:X:X:X:X:X:X:X:X:X:X:X",
":X:X:X:X:X:X:X:X:X:X:X:X:X:X:X:X:X:X:X. & - g l b / b b m / ] ] b m / *.] / ) b l g - + . :X:X:X:X:X:X:X:X:X:X:X:X:X:X:X:X:X:X:X",
":X:X:X:X:X:X:X:X:X:X:X:X:X:X:X:X:X:X:X:X. X X - & l 6 l v b v b v v v v v v v - & + X . :X:X:X:X:X:X:X:X:X:X:X:X:X:X:X:X:X:X:X:X",
":X:X:X:X:X:X:X:X:X:X:X:X:X:X:X:X:X:X:X:X:X:X. % % @ X & g g v g j j j g ; - - X 2 . :X:X:X:X:X:X:X:X:X:X:X:X:X:X:X:X:X:X:X:X:X:X",
":X:X:X:X:X:X:X:X:X:X:X:X:X:X:X:X:X:X:X:X:X:XX :.X X 7 X @ @ & @ g - : @ X % . . ^ 1 . :X:X:X:X:X:X:X:X:X:X:X:X:X:X:X:X:X:X:X:X:X",
":X:X:X:X:X:X:X:X:X:X:X:X:X:X:X:X:X:X:X:X:X. y I X X f a 3 1 a < @ % X 3 ..f % X C W X :X:X:X:X:X:X:X:X:X:X:X:X:X:X:X:X:X:X:X:X:X",
":X:X:X:X:X:X:X:X:X:X:X:X:X:X:X:X:X:X:X:X:X% ! q q 1 % f ....X.< . f ..f a < % y % Q u . :X:X:X:X:X:X:X:X:X:X:X:X:X:X:X:X:X:X:X:X",
":X:X:X:X:X:X:X:X:X:X:X:X:X:X:X:X:X:X:X:X. % F % F W q X a f f X % a f a X 1 W I X F 2 . . :X:X:X:X:X:X:X:X:X:X:X:X:X:X:X:X:X:X:X",
":X:X:X:X:X:X:X:X:X:X:X:X:X:X:X:X:X:X:XX ^.D.t . F W ! C X 4 4 2 r < 1 X u ! Q I + 1 7.].o.:X:X:X:X:X:X:X:X:X:X:X:X:X:X:X:X:X:X:X",
":X:X:X:X:X:X:X:X:X:X:X:X:X:X:X:X:X:X:XP &X&XQ.X X 1 y I F . % I I % . r W C 1 X + a.&X@XG.. :X:X:X:X:X:X:X:X:X:X:X:X:X:X:X:X:X:X",
":X:X:X:X:X:X:X:X:X:X:X:X:X:X:X:X:X:X:Xt @X$XN.@ n n 6 + X . 1 2 2 1 X X + 8 x x & $.%X+Xs.. :X:X:X:X:X:X:X:X:X:X:X:X:X:X:X:X:X:X",
":X:X:X:X:X:X:X:X:X:X:X:X:X:X:X:X:X:X:X. N.+X5.. . X 8 z x z h 6 6 6 k k 6 & X X + P OX].t :X:X:X:X:X:X:X:X:X:X:X:X:X:X:X:X:X:X:X",
":X:X:X:X:X:X:X:X:X:X:X:X:X:X:X:X:X:X:X:XX @.N 2 e 2 X . . . . X @ & & 6 k z x k % 1 4.5 . :X:X:X:X:X:X:X:X:X:X:X:X:X:X:X:X:X:X:X",
":X:X:X:X:X:X:X:X:X:X:X:X:X:X:X:X:X:X:X:X:X:X. * F G I F q 2 % X . X X X . X % * % . . :X:X:X:X:X:X:X:X:X:X:X:X:X:X:X:X:X:X:X:X:X",
":X:X:X:X:X:X:X:X:X:X:X:X:X:X:X:X:X:X:X:X:X:X. * e F I I I W W J u I I I I I J y q . :X:X:X:X:X:X:X:X:X:X:X:X:X:X:X:X:X:X:X:X:X:X",
":X:X:X:X:X:X:X:X:X:X:X:X:X:X:X:X:X:X:X:X:X:X. % q 2 u F J J F q 1 F F F y e y q * . :X:X:X:X:X:X:X:X:X:X:X:X:X:X:X:X:X:X:X:X:X:X",
":X:X:X:X:X:X:X:X:X:X:X:X:X:X:X:X:X:X:X:X:X:X:X. . X . + % 2 % + . X % % X X X . . :X:X:X:X:X:X:X:X:X:X:X:X:X:X:X:X:X:X:X:X:X:X:X",
":X:X:X:X:X:X:X:X:X:X:X:X:X:X:X:X:X:X:X:X:X:X:X:X. . 4 d d + . . :X. X i d i . . :X:X:X:X:X:X:X:X:X:X:X:X:X:X:X:X:X:X:X:X:X:X:X:X",
":X:X:X:X:X:X:X:X:X:X:X:X:X:X:X:X:X:X:X:X:X:X:X:X. < d d d d X :X:XX p d d d 4 . :X:X:X:X:X:X:X:X:X:X:X:X:X:X:X:X:X:X:X:X:X:X:X:X",
":X:X:X:X:X:X:X:X:X:X:X:X:X:X:X:X:X:X:X:X:X:X:X:X. X > < < < X . :XX < < , > X . :X:X:X:X:X:X:X:X:X:X:X:X:X:X:X:X:X:X:X:X:X:X:X:X",
":X:X:X:X:X:X:X:X:X:X:X:X:X:X:X:X:X:X:X:X:X:X:X:X:X:X:X:X:X:X:X:X:X:X:X:X:X:X:X:X:X:X:X:X:X:X:X:X:X:X:X:X:X:X:X:X:X:X:X:X:X:X:X:X",
":X:X:X:X:X:X:X:X:X:X:X:X:X:X:X:X:X:X:X:X:X:X:X:X:X:X:X:X:X:X:X:X:X:X:X:X:X:X:X:X:X:X:X:X:X:X:X:X:X:X:X:X:X:X:X:X:X:X:X:X:X:X:X:X",
":X:X:X:X:X:X:X:X:X:X:X:X:X:X:X:X:X:X:X:X:X:X:X:X:X:X:X:X:X:X:X:X:X:X:X:X:X:X:X:X:X:X:X:X:X:X:X:X:X:X:X:X:X:X:X:X:X:X:X:X:X:X:X:X",
":X:X:X:X:X:X:X:X:X:X:X:X:X:X:X:X:X:X:X:X:X:X:X:X:X:X:X:X:X:X:X:X:X:X:X:X:X:X:X:X:X:X:X:X:X:X:X:X:X:X:X:X:X:X:X:X:X:X:X:X:X:X:X:X",
":X:X:X:X:X:X:X:X:X:X:X:X:X:X:X:X:X:X:X:X:X:X:X:X:X:X:X:X:X:X:X:X:X:X:X:X:X:X:X:X:X:X:X:X:X:X:X:X:X:X:X:X:X:X:X:X:X:X:X:X:X:X:X:X"
};
